<svg width="126" height="36" viewBox="0 0 63 18" fill="none" xmlns="http://www.w3.org/2000/svg">
  <path d="M0 0V17.7441H2.40339V9.94577H10.8919V7.74703H2.40339V2.19875H11.3265V0H0Z" fill="#000000"/>
  <path d="M22.7778 7.2607C22.3592 6.70151 21.8309 6.25837 21.1925 5.93179C20.4765 5.53969 19.6584 5.34364 18.7381 5.34364C17.6131 5.34364 16.5989 5.62483 15.6955 6.18746C14.8092 6.74985 14.1018 7.50853 13.5733 8.46301C13.062 9.41749 12.8063 10.4915 12.8063 11.6845C12.8063 12.8774 13.062 13.9514 13.5733 14.9059C14.1018 15.8604 14.8176 16.6191 15.721 17.1814C16.6245 17.7269 17.63 17.9995 18.7381 17.9995C19.6756 17.9995 20.5023 17.812 21.2183 17.4371C21.8535 17.0973 22.3732 16.6488 22.7778 16.0913V17.7438H25.1046V5.59931H22.7778V7.2607ZM21.883 14.676C21.1841 15.443 20.2638 15.8265 19.1216 15.8265C18.3546 15.8265 17.6727 15.6476 17.0762 15.2897C16.4797 14.9317 16.0108 14.4458 15.67 13.8322C15.3461 13.2016 15.1841 12.477 15.1841 11.6589C15.1841 10.8409 15.3461 10.1504 15.67 9.53674C16.0108 8.90615 16.4711 8.41173 17.0507 8.05374C17.6472 7.69574 18.329 7.51687 19.0961 7.51687C19.8631 7.51687 20.5364 7.69574 21.1159 8.05374C21.6955 8.39455 22.1386 8.88038 22.4453 9.51123C22.7692 10.1249 22.9312 10.8492 22.9312 11.6845C22.9312 12.8946 22.5818 13.8918 21.883 14.676Z" fill="#000000"/>
  <path d="M35.7156 5.67611C35.2214 5.45455 34.6674 5.34364 34.0537 5.34364C32.7072 5.34364 31.6761 5.80395 30.9601 6.72433C30.8882 6.81683 30.8203 6.91253 30.7555 7.01116V5.59931H28.4544V17.7441H30.7555V10.8151C30.7555 9.70727 31.0283 8.88063 31.5738 8.33493C32.1192 7.78947 32.8181 7.51687 33.6702 7.51687C34.0795 7.51687 34.4372 7.57649 34.7442 7.69574C35.0509 7.81499 35.3321 8.01104 35.5878 8.28389L37.0963 6.72433C36.6703 6.22991 36.21 5.88051 35.7156 5.67611Z" fill="#000000"/>
  <path d="M41.8199 8.10502C42.4164 7.74702 43.0983 7.56815 43.8653 7.56815C44.5131 7.56815 45.101 7.6874 45.6295 7.92614C46.1749 8.14771 46.635 8.48019 47.0102 8.92332L48.5442 7.38928C47.9647 6.72457 47.2744 6.22181 46.4733 5.88075C45.6722 5.52276 44.8028 5.34388 43.8653 5.34388C42.6721 5.34388 41.5897 5.62508 40.6181 6.18771C39.6636 6.73316 38.9052 7.48325 38.3425 8.43774C37.7971 9.39222 37.5245 10.4662 37.5245 11.6592C37.5245 12.8522 37.7971 13.9092 38.3425 14.8806C38.9052 15.8351 39.6636 16.5938 40.6181 17.1562C41.5897 17.7186 42.6721 18 43.8653 18C44.8028 18 45.6722 17.8211 46.4733 17.4631C47.2914 17.1051 47.9816 16.6024 48.5442 15.9546L47.0357 14.4206C46.6436 14.8637 46.1749 15.2045 45.6295 15.4433C45.101 15.6648 44.5131 15.7757 43.8653 15.7757C43.0983 15.7757 42.4164 15.5969 41.8199 15.2389C41.2232 14.8809 40.7545 14.395 40.4137 13.7814C40.0726 13.1677 39.9023 12.4603 39.9023 11.6592C39.9023 10.8581 40.0726 10.1507 40.4137 9.53699C40.7545 8.92332 41.2232 8.44583 41.8199 8.10502Z" fill="#000000"/>
  <path d="M61.6219 8.43749C61.0595 7.48301 60.2925 6.73292 59.3208 6.18746C58.3663 5.62508 57.3009 5.34364 56.1249 5.34364C54.9488 5.34364 53.8579 5.62483 52.9032 6.18746C51.9487 6.74985 51.1903 7.50853 50.6277 8.46301C50.0653 9.40056 49.7841 10.4574 49.7841 11.6334C49.7841 12.8095 50.0653 13.909 50.6277 14.8806C51.1903 15.8351 51.9487 16.5938 52.9032 17.1562C53.8579 17.7186 54.9317 18 56.1249 18C57.3181 18 58.3663 17.7188 59.3208 17.1562C60.2925 16.5938 61.0595 15.8351 61.6219 14.8806C62.1845 13.909 62.4657 12.8266 62.4657 11.6334C62.4657 10.4402 62.1845 9.39198 61.6219 8.43749ZM59.5765 13.7811C59.2357 14.3948 58.7668 14.8806 58.1703 15.2386C57.5738 15.5966 56.8919 15.7755 56.1249 15.7755C55.3579 15.7755 54.676 15.5966 54.0795 15.2386C53.4828 14.8806 53.0141 14.3948 52.6733 13.7811C52.3322 13.1505 52.1619 12.4345 52.1619 11.6334C52.1619 10.8323 52.3322 10.1504 52.6733 9.53674C53.0141 8.92308 53.4828 8.44583 54.0795 8.10502C54.676 7.74702 55.3579 7.56815 56.1249 7.56815C56.8919 7.56815 57.5652 7.74702 58.1448 8.10502C58.7413 8.44583 59.2102 8.92308 59.551 9.53674C59.909 10.1504 60.0878 10.8492 60.0878 11.6334C60.0878 12.4176 59.9173 13.1505 59.5765 13.7811Z" fill="#000000"/>
</svg>
